<svg xmlns="http://www.w3.org/2000/svg" xmlns:xlink="http://www.w3.org/1999/xlink" width="500" zoomAndPan="magnify" viewBox="0 0 375 374.999991" height="500" preserveAspectRatio="xMidYMid meet" version="1.0"><defs><clipPath id="b047bc2094"><path d="M 38 87.136719 L 338 87.136719 L 338 219.183594 L 38 219.183594 Z M 38 87.136719 " clip-rule="nonzero"/></clipPath><clipPath id="9f75992138"><path d="M 257.175781 216.703125 L 337.203125 216.703125 L 337.203125 276 L 257.175781 276 Z M 257.175781 216.703125 " clip-rule="nonzero"/></clipPath><clipPath id="2302eb3140"><path d="M 135.953125 250 L 239.988281 250 L 239.988281 276.84375 L 135.953125 276.84375 Z M 135.953125 250 " clip-rule="nonzero"/></clipPath><clipPath id="8c97a2eac7"><path d="M 173 217 L 201 217 L 201 276.84375 L 173 276.84375 Z M 173 217 " clip-rule="nonzero"/></clipPath><clipPath id="f738bf6145"><path d="M 38 212.46875 L 122.027344 212.46875 L 122.027344 276 L 38 276 Z M 38 212.46875 " clip-rule="nonzero"/></clipPath></defs><g clip-path="url(#b047bc2094)"><path fill="#0094ff" d="M 174.484375 114.109375 C 137.023438 114.109375 106.65625 144.296875 106.65625 181.535156 C 106.65625 188.984375 100.582031 195.023438 93.089844 195.023438 C 78.105469 195.023438 65.960938 207.097656 65.960938 221.992188 C 65.960938 236.890625 78.105469 248.964844 93.089844 248.964844 L 110.046875 248.964844 L 110.046875 275.933594 L 93.089844 275.933594 C 63.121094 275.933594 38.828125 251.785156 38.828125 221.992188 C 38.828125 196.585938 56.496094 175.285156 80.28125 169.5625 C 86.199219 123.082031 126.121094 87.136719 174.484375 87.136719 C 212.605469 87.136719 245.457031 109.460938 260.574219 141.652344 C 263.480469 141.273438 266.441406 141.078125 269.445312 141.078125 C 306.902344 141.078125 337.273438 171.269531 337.273438 208.507812 C 337.273438 225.914062 332.160156 242.625 321.65625 255.246094 C 310.9375 268.125 295.226562 275.933594 276.226562 275.933594 L 266.050781 275.933594 L 266.050781 248.964844 L 276.226562 248.964844 C 287.195312 248.964844 295.222656 244.699219 300.75 238.054688 C 306.496094 231.152344 310.140625 220.890625 310.140625 208.507812 C 310.140625 186.164062 291.921875 168.050781 269.445312 168.050781 C 264.894531 168.050781 260.542969 168.789062 256.492188 170.136719 C 253.035156 171.289062 249.257812 171.011719 246.011719 169.363281 C 242.765625 167.714844 240.320312 164.835938 239.234375 161.378906 C 230.609375 133.972656 204.863281 114.109375 174.484375 114.109375 Z M 174.484375 114.109375 " fill-opacity="1" fill-rule="evenodd"/></g><g clip-path="url(#9f75992138)"><path fill="#00ffe2" d="M 174.484375 114.109375 C 137.023438 114.109375 106.65625 144.296875 106.65625 181.535156 C 106.65625 188.984375 100.582031 195.023438 93.089844 195.023438 C 78.105469 195.023438 65.960938 207.097656 65.960938 221.992188 C 65.960938 236.890625 78.105469 248.964844 93.089844 248.964844 L 110.046875 248.964844 L 110.046875 275.933594 L 93.089844 275.933594 C 63.121094 275.933594 38.828125 251.785156 38.828125 221.992188 C 38.828125 196.585938 56.496094 175.285156 80.28125 169.5625 C 86.199219 123.082031 126.121094 87.136719 174.484375 87.136719 C 212.605469 87.136719 245.457031 109.460938 260.574219 141.652344 C 263.480469 141.273438 266.441406 141.078125 269.445312 141.078125 C 306.902344 141.078125 337.273438 171.269531 337.273438 208.507812 C 337.273438 225.914062 332.160156 242.625 321.65625 255.246094 C 310.9375 268.125 295.226562 275.933594 276.226562 275.933594 L 266.050781 275.933594 L 266.050781 248.964844 L 276.226562 248.964844 C 287.195312 248.964844 295.222656 244.699219 300.75 238.054688 C 306.496094 231.152344 310.140625 220.890625 310.140625 208.507812 C 310.140625 186.164062 291.921875 168.050781 269.445312 168.050781 C 264.894531 168.050781 260.542969 168.789062 256.492188 170.136719 C 253.035156 171.289062 249.257812 171.011719 246.011719 169.363281 C 242.765625 167.714844 240.320312 164.835938 239.234375 161.378906 C 230.609375 133.972656 204.863281 114.109375 174.484375 114.109375 Z M 174.484375 114.109375 " fill-opacity="1" fill-rule="evenodd"/></g><g clip-path="url(#2302eb3140)"><path fill="#aeef20" d="M 200.320312 412.699219 C 237.78125 412.699219 268.148438 382.511719 268.148438 345.269531 C 268.148438 337.824219 274.222656 331.785156 281.714844 331.785156 C 296.695312 331.785156 308.84375 319.710938 308.84375 304.816406 C 308.84375 289.917969 296.695312 277.84375 281.714844 277.84375 L 264.757812 277.84375 L 264.757812 250.871094 L 281.714844 250.871094 C 311.679688 250.871094 335.976562 275.023438 335.976562 304.816406 C 335.976562 330.21875 318.308594 351.523438 294.523438 357.246094 C 288.601562 403.726562 248.683594 439.671875 200.320312 439.671875 C 162.195312 439.671875 129.347656 417.347656 114.230469 385.15625 C 111.324219 385.535156 108.363281 385.726562 105.359375 385.726562 C 67.898438 385.726562 37.53125 355.539062 37.53125 318.300781 C 37.53125 300.890625 42.644531 284.183594 53.148438 271.5625 C 63.867188 258.683594 79.578125 250.871094 98.578125 250.871094 L 108.75 250.871094 L 108.75 277.84375 L 98.578125 277.84375 C 87.609375 277.84375 79.582031 282.109375 74.050781 288.753906 C 68.308594 295.65625 64.664062 305.917969 64.664062 318.300781 C 64.664062 340.644531 82.882812 358.757812 105.359375 358.757812 C 109.910156 358.757812 114.257812 358.019531 118.308594 356.667969 C 121.765625 355.515625 125.542969 355.796875 128.792969 357.445312 C 132.039062 359.09375 134.484375 361.96875 135.570312 365.429688 C 144.195312 392.835938 169.941406 412.699219 200.320312 412.699219 Z M 200.320312 412.699219 " fill-opacity="1" fill-rule="evenodd"/></g><g clip-path="url(#8c97a2eac7)"><path fill="#aeef20" d="M 200.320312 304.816406 L 173.1875 304.816406 L 173.1875 217.160156 L 200.320312 217.160156 Z M 200.320312 304.816406 " fill-opacity="1" fill-rule="evenodd"/></g><path fill="#aeef20" d="M 196.34375 200.878906 L 237.042969 241.335938 L 217.855469 260.410156 L 186.753906 229.488281 L 155.648438 260.410156 L 136.464844 241.335938 L 177.160156 200.878906 C 182.457031 195.613281 191.046875 195.613281 196.34375 200.878906 Z M 196.34375 200.878906 " fill-opacity="1" fill-rule="evenodd"/><g clip-path="url(#f738bf6145)"><path fill="#00ffe2" d="M 174.484375 114.109375 C 137.023438 114.109375 106.65625 144.296875 106.65625 181.535156 C 106.65625 188.984375 100.582031 195.023438 93.089844 195.023438 C 78.105469 195.023438 65.960938 207.097656 65.960938 221.992188 C 65.960938 236.890625 78.105469 248.964844 93.089844 248.964844 L 110.046875 248.964844 L 110.046875 275.933594 L 93.089844 275.933594 C 63.121094 275.933594 38.828125 251.785156 38.828125 221.992188 C 38.828125 196.585938 56.496094 175.285156 80.28125 169.5625 C 86.199219 123.082031 126.121094 87.136719 174.484375 87.136719 C 212.605469 87.136719 245.457031 109.460938 260.574219 141.652344 C 263.480469 141.273438 266.441406 141.078125 269.445312 141.078125 C 306.902344 141.078125 337.273438 171.269531 337.273438 208.507812 C 337.273438 225.914062 332.160156 242.625 321.65625 255.246094 C 310.9375 268.125 295.226562 275.933594 276.226562 275.933594 L 266.050781 275.933594 L 266.050781 248.964844 L 276.226562 248.964844 C 287.195312 248.964844 295.222656 244.699219 300.75 238.054688 C 306.496094 231.152344 310.140625 220.890625 310.140625 208.507812 C 310.140625 186.164062 291.921875 168.050781 269.445312 168.050781 C 264.894531 168.050781 260.542969 168.789062 256.492188 170.136719 C 253.035156 171.289062 249.257812 171.011719 246.011719 169.363281 C 242.765625 167.714844 240.320312 164.835938 239.234375 161.378906 C 230.609375 133.972656 204.863281 114.109375 174.484375 114.109375 Z M 174.484375 114.109375 " fill-opacity="1" fill-rule="evenodd"/></g></svg>